<?xml version="1.0" encoding="iso-8859-1"?>
<!-- Uploaded to: SVG Repo, www.svgrepo.com, Generator: SVG Repo Mixer Tools -->
<!DOCTYPE svg PUBLIC "-//W3C//DTD SVG 1.1//EN" "http://www.w3.org/Graphics/SVG/1.1/DTD/svg11.dtd">
<svg fill="#000000" height="800px" width="800px" version="1.1" id="Capa_1" xmlns="http://www.w3.org/2000/svg" xmlns:xlink="http://www.w3.org/1999/xlink" 
	 viewBox="0 0 409.939 409.939" xml:space="preserve">
<path d="M53.619,269.827c-0.644-5.485,3.281-10.454,8.766-11.098c6.512-0.765,12.349-1.78,17.348-3.019
	c12.643-3.134,29.689-4.911,46.798-4.856c5.523,0.016,9.987,4.505,9.972,10.027c-0.015,5.514-4.49,9.973-10,9.973
	c-0.214-0.002-0.418-0.001-0.627-0.001c-15.109,0-30.518,1.59-41.333,4.271c-5.813,1.44-12.483,2.606-19.827,3.469
	c-0.396,0.047-0.79,0.069-1.179,0.069C58.536,278.662,54.216,274.916,53.619,269.827z M352.516,259.65
	c-36.886-11.853-80.18-10.52-106.722-3.938c-6.687,1.657-15.002,2.933-24.046,3.69c-5.504,0.46-9.592,5.296-9.131,10.799
	c0.461,5.504,5.298,9.602,10.799,9.131c10.086-0.844,19.488-2.299,27.19-4.208c4.129-1.023,8.797-1.906,13.869-2.604l-15.134,87.132
	h-85.369l-3.653-26.551c-0.753-5.472-5.795-9.303-11.27-8.543c-5.471,0.753-9.296,5.798-8.543,11.27l4.842,35.188
	c0.681,4.949,4.911,8.637,9.907,8.637h102.5c4.863,0,9.021-3.498,9.853-8.289l17.457-100.509
	c19.531-0.566,41.651,1.513,61.335,7.837c5.259,1.691,10.89-1.204,12.58-6.461C360.666,266.972,357.774,261.34,352.516,259.65z
	 M63.538,233.835c0.389,0,0.782-0.022,1.178-0.069c7.351-0.862,14.022-2.03,19.826-3.469c22.796-5.65,60.274-5.712,77.12-0.125
	c5.241,1.736,10.901-1.103,12.639-6.345c1.738-5.242-1.102-10.9-6.344-12.64c-8.299-2.751-19.236-4.313-30.927-4.894l-13.886-79.952
	h15.075l7.137,49.359c0.791,5.467,5.867,9.251,11.328,8.467c5.466-0.791,9.257-5.862,8.466-11.328l-6.723-46.498h124.037
	c5.523,0,10-4.478,10-10s-4.477-10-10-10H155.536L141.4,8.569c-0.791-5.467-5.858-9.249-11.328-8.467
	c-5.466,0.791-9.256,5.862-8.466,11.328l13.722,94.911h-24.07c-2.952,0-5.752,1.304-7.652,3.563c-1.9,2.259-2.705,5.241-2.2,8.148
	l15.312,88.159c-13.709,0.531-26.995,2.196-36.986,4.673c-4.991,1.237-10.827,2.252-17.347,3.018
	c-5.485,0.644-9.41,5.612-8.766,11.098C54.216,230.089,58.536,233.835,63.538,233.835z M374.997,66.957
	c-3.905-3.904-10.237-3.904-14.143,0L34.943,392.868c-3.905,3.905-3.905,10.237,0,14.143c1.953,1.952,4.512,2.929,7.071,2.929
	s5.119-0.977,7.071-2.929L374.997,81.1C378.902,77.194,378.902,70.862,374.997,66.957z M352.411,214.79
	c-22.278-6.888-48.628-9.763-78.314-8.563c-5.519,0.225-9.81,4.88-9.585,10.398c0.225,5.518,4.879,9.793,10.398,9.586
	c27.41-1.118,51.495,1.471,71.593,7.686c0.984,0.305,1.979,0.449,2.957,0.449c4.27,0,8.224-2.756,9.551-7.049
	C360.642,222.021,357.687,216.422,352.411,214.79z"/>
</svg>