<?xml version="1.0" encoding="iso-8859-1"?>
<!-- Uploaded to: SVG Repo, www.svgrepo.com, Generator: SVG Repo Mixer Tools -->
<!DOCTYPE svg PUBLIC "-//W3C//DTD SVG 1.1//EN" "http://www.w3.org/Graphics/SVG/1.1/DTD/svg11.dtd">
<svg fill="#000000" height="800px" width="800px" version="1.1" id="Capa_1" xmlns="http://www.w3.org/2000/svg" xmlns:xlink="http://www.w3.org/1999/xlink" 
	 viewBox="0 0 313.725 313.725" xml:space="preserve">
<g>
	<path d="M171.212,98.308c14.207,0,25.734-11.516,25.734-25.73c0-14.211-11.527-25.733-25.734-25.733
		c-14.217,0-25.744,11.522-25.744,25.733C145.468,86.792,156.995,98.308,171.212,98.308z"/>
	<path d="M106.571,169.369l5.129,2.503c0.477,0.233,0.982,0.344,1.479,0.344c1.251,0,2.454-0.697,3.041-1.897l2.507-5.13
		c0.394-0.806,0.451-1.735,0.159-2.584c-0.292-0.849-0.909-1.546-1.715-1.94l-5.132-2.503c-1.681-0.817-3.702-0.121-4.521,1.556
		l-2.504,5.13c-0.394,0.807-0.452,1.735-0.159,2.583C105.147,168.279,105.765,168.977,106.571,169.369z"/>
	<path d="M93.907,187.777c0.42,1.49,1.776,2.465,3.252,2.465c0.303,0,0.61-0.041,0.916-0.127l5.496-1.544
		c0.864-0.242,1.596-0.818,2.034-1.601c0.438-0.782,0.55-1.707,0.306-2.57l-1.546-5.496c-0.506-1.797-2.37-2.844-4.169-2.339
		l-5.498,1.544c-0.864,0.242-1.596,0.818-2.035,1.601c-0.438,0.783-0.549,1.708-0.305,2.571L93.907,187.777z"/>
	<path d="M117.103,191.318c-0.242-0.864-0.818-1.596-1.601-2.034c-0.783-0.439-1.708-0.548-2.571-0.307l-5.496,1.548
		c-1.797,0.507-2.844,2.373-2.339,4.17l1.545,5.496c0.243,0.863,0.818,1.595,1.601,2.034c0.51,0.285,1.08,0.432,1.654,0.432
		c0.308,0,0.615-0.042,0.917-0.126l5.496-1.548c1.796-0.507,2.843-2.372,2.337-4.169L117.103,191.318z"/>
	<path d="M136.38,176.948c-1.585-0.344-3.15,0.668-3.489,2.255l-13.22,61.494H92.679L79.46,179.203
		c-0.34-1.586-1.903-2.599-3.488-2.255c-1.586,0.341-2.596,1.903-2.255,3.489l13.717,63.814c0.291,1.354,1.487,2.32,2.872,2.32
		h31.738c1.385,0,2.581-0.967,2.872-2.32l13.719-63.814C138.976,178.852,137.967,177.289,136.38,176.948z"/>
	<path d="M156.862,0C70.368,0,0,70.368,0,156.862s70.368,156.862,156.862,156.862s156.862-70.368,156.862-156.862
		S243.356,0,156.862,0z M290,156.862c0,32.443-11.671,62.209-31.027,85.333l-66.567-66.565v-5.626
		c0.375-1.601,0.579-3.266,0.579-4.98v-31.407c0-1.248-0.11-2.471-0.313-3.661c2.645,7.321,4.48,18.934,5.776,36.152
		c0.321,4.288,3.9,7.553,8.131,7.553c0.207,0,0.414-0.008,0.622-0.023c4.497-0.338,7.868-4.257,7.528-8.754
		c-3.761-50.029-12.709-62.978-43.519-62.978c-16.423,0-27.769,3.25-34.785,17.747L71.526,54.755
		c23.124-19.358,52.891-31.03,85.336-31.03C230.274,23.725,290,83.45,290,156.862z M23.725,156.862
		c0-32.443,11.671-62.209,31.026-85.332l72.632,72.629c-1.464,1.086-2.911,0.807-3.979,0.59c-0.267-0.054-0.482-0.095-0.643-0.121
		c-4.457-0.74-8.65,2.284-9.381,6.732c-0.728,4.422,2.246,8.598,6.65,9.367l0.122,0.024c7.454,1.514,13.935-0.313,18.819-5.004
		l10.502,10.502c0.07,1.274,0.256,2.519,0.536,3.725v68.924c0,5.261,4.265,9.525,9.525,9.525c5.261,0,9.525-4.265,9.525-9.525
		V186.69c0.306,0.029,0.614,0.053,0.925,0.07l3.369,3.369v48.769c0,5.261,4.265,9.525,9.525,9.525c5.261,0,9.525-4.265,9.525-9.525
		v-29.718l49.793,49.79C219.073,278.328,189.308,290,156.862,290C83.45,290,23.725,230.274,23.725,156.862z"/>
</g>
</svg>