<?xml version="1.0" encoding="iso-8859-1"?>
<!-- Uploaded to: SVG Repo, www.svgrepo.com, Generator: SVG Repo Mixer Tools -->
<!DOCTYPE svg PUBLIC "-//W3C//DTD SVG 1.1//EN" "http://www.w3.org/Graphics/SVG/1.1/DTD/svg11.dtd">
<svg fill="#000000" height="800px" width="800px" version="1.1" id="Capa_1" xmlns="http://www.w3.org/2000/svg" xmlns:xlink="http://www.w3.org/1999/xlink" 
	 viewBox="0 0 441.091 441.091" xml:space="preserve">
<g>
	<path d="M328.231,334.439l3.57-5.099l7.781-1.278c1.057-0.171,1.994-0.776,2.586-1.667c0.596-0.89,0.789-1.989,0.545-3.027
		l-4.848-20.444c-0.459-1.935-2.313-3.197-4.285-2.932l-13.475,1.865c-0.619,0.087-1.217,0.326-1.727,0.695l-11.326,8.178
		c-1.203,0.87-1.803,2.353-1.535,3.814l2.646,14.64c0.262,1.448,1.324,2.619,2.742,3.023l13.109,3.729
		c0.35,0.098,0.705,0.146,1.057,0.146C326.311,336.083,327.497,335.486,328.231,334.439z"/>
	<path d="M356.169,372.837c-0.701-1.257-2.123-1.933-3.539-1.681l-5.365,0.947l-5.613-4.028c-0.762-0.547-1.721-0.753-2.635-0.566
		c-0.918,0.183-1.721,0.741-2.211,1.538l-9.656,15.662c-0.531,0.861-0.65,1.916-0.32,2.874l3.471,10.079
		c0.469,1.369,1.758,2.278,3.189,2.278c0.063,0,0.119-0.001,0.176-0.004l18.115-0.942c1.043-0.055,2.002-0.59,2.598-1.448
		l7.428-10.707c0.73-1.059,0.801-2.443,0.172-3.569L356.169,372.837z"/>
	<path d="M399.749,394.074l-16.121-8.303c-0.932-0.48-2.029-0.501-2.975-0.058l-11.809,5.511c-1.168,0.545-1.926,1.707-1.951,2.997
		l-0.229,11.938c-0.029,1.44,0.859,2.739,2.209,3.236l5.113,1.884l2.824,6.304c0.381,0.854,1.102,1.513,1.988,1.816
		c0.355,0.123,0.723,0.183,1.094,0.183c0.551,0,1.096-0.134,1.594-0.399l16.227-8.671c0.892-0.478,1.523-1.329,1.723-2.321
		l2.08-10.454C401.807,396.259,401.089,394.765,399.749,394.074z"/>
	<path d="M231.434,144.247c29.326,0,53.1-23.773,53.1-53.094c0-29.324-23.773-53.098-53.1-53.098
		c-29.318,0-53.094,23.774-53.094,53.098C178.34,120.474,202.116,144.247,231.434,144.247z"/>
	<path d="M315.883,299.433c9.139-1.745,15.133-10.57,13.385-19.708c-0.227-1.178-5.656-29.148-18.432-58.33
		c-18.713-42.732-43.225-66.179-72.855-69.686c-0.324-0.038-4.639-0.405-6.547-0.405c-3.684,0-7.258,0.454-10.684,1.29
		c0,0-0.973,0.221-2.094,0.564c-1.824,0.543-3.602,1.194-5.324,1.953c-17.848,7.502-62.059,35.06-71.658,126.004
		c-0.979,9.253,5.73,17.548,14.986,18.526c0.602,0.064,1.197,0.093,1.787,0.093c8.51-0.001,15.82-6.428,16.734-15.081
		c2.197-20.787,6.314-37.279,11.322-50.363v47.625c0,3.534,0.422,6.967,1.191,10.265v129.253c0,10.857,8.803,19.657,19.656,19.657
		c10.857,0,19.66-8.8,19.66-19.657v-94.809c1.453,0.145,2.928,0.221,4.422,0.221c1.496,0,2.973-0.076,4.428-0.221v94.809
		c0,10.857,8.803,19.657,19.654,19.657c10.859,0,19.662-8.8,19.662-19.657V292.154c0.766-3.289,1.182-6.713,1.182-10.238v-54.674
		c10.664,21.751,17.392,46.272,19.813,58.807c1.539,8.072,8.605,13.688,16.531,13.688
		C313.751,299.736,314.815,299.638,315.883,299.433z"/>
	<path d="M89.51,0c-27.57,0-50,22.43-50,50s22.43,50,50,50c27.57,0,50-22.43,50-50S117.081,0,89.51,0z M119.51,50
		c0,4.626-1.053,9.01-2.932,12.927L76.585,22.933C80.501,21.054,84.885,20,89.51,20C106.053,20,119.51,33.458,119.51,50z M59.51,50
		c0-4.625,1.055-9.009,2.932-12.925l39.994,39.994C98.52,78.946,94.135,80,89.51,80C72.969,80,59.51,66.542,59.51,50z"/>
</g>
</svg>